# xmcd
#
# Track frame offsets: 
#        150
#        12365
#        25815
#        38037
#        60230
#        77342
#        90905
#        102355
#        118197
#        128852
#        140800
#        157475
#        175452
#        187147
#
# Disc length: 2650 seconds
#
# Revision: 2
# Processed by: cddbd v1.5.1PL0 Copyright (c) Steve Scherf et al.
# Submitted via: ExactAudioCopy v0.95a5
#
DISCID=bb0a580e
DTITLE=Various Artist - Country Love Songs
DYEAR=1999
DGENRE=Country
TTITLE0=Sheril - Winette - Stand By Your Man
TTITLE1=Parton - I Will Always Love You
TTITLE2=Holiday - Reeves - All I Ever Need Is You
TTITLE3=Judd - Jarvis - Overstreet - Love Can Build A Bridge
TTITLE4=Orbison - Melson - Blue Bayou
TTITLE5=Denver - Annie's Song
TTITLE6=Holyfield - Some Broken Hearts Never Mend
TTITLE7=Hammond - David - To All The Girls I've Loved Before
TTITLE8=Kristofferson - Help Me Make It Through The Night
TTITLE9=Leigh - Don't It Make My Brown Eyes Blue
TTITLE10=Gibb - Islands In The Stream
TTITLE11=Richie - Lady
TTITLE12=Seals - Mooney - Crazy Arms
TTITLE13=Payne - I Love You Because
EXTD=Performed by Absolute Country
EXTT0=
EXTT1=
EXTT2=
EXTT3=
EXTT4=
EXTT5=
EXTT6=
EXTT7=
EXTT8=
EXTT9=
EXTT10=
EXTT11=
EXTT12=
EXTT13=
PLAYORDER=
